<svg xmlns="http://www.w3.org/2000/svg" width="60.9" height="51.67" viewBox="0 0 60.9 51.67">
  <path id="Path_8454" data-name="Path 8454" d="M3.3,24.8,15,29.4V41a3.628,3.628,0,0,0,2.1,3.3A38.512,38.512,0,0,0,32,47a38.512,38.512,0,0,0,14.9-2.7A3.524,3.524,0,0,0,49,41V29.4l7-2.7V44.2A2.913,2.913,0,0,0,54,47a2.792,2.792,0,0,0,.8,2l-1.5,8.7a2.174,2.174,0,0,0,.8,2,2.1,2.1,0,0,0,1.1.4,1.929,1.929,0,0,0,1-.3l4.4-2.5a1.944,1.944,0,0,0,.8-2.5L59,49.1a3.118,3.118,0,0,0,.9-2.1,2.913,2.913,0,0,0-2-2.8V25.9l2.7-1.1A2.072,2.072,0,0,0,61.9,23a2.241,2.241,0,0,0-1.2-1.9L34.3,9.9a6.361,6.361,0,0,0-4.7,0L3.2,21.1A2.241,2.241,0,0,0,2,23,1.922,1.922,0,0,0,3.3,24.8ZM47,41a1.568,1.568,0,0,1-.9,1.4C42.5,44.1,37.3,45,32,45s-10.5-.9-14.1-2.6A1.568,1.568,0,0,1,17,41V30.2l12.8,5a6.25,6.25,0,0,0,4.4,0l12.8-5Zm10,5a1,1,0,1,1-1,1A.945.945,0,0,1,57,46Zm2.7,9.6-4.4,2.5L56.7,50h.6ZM30.4,11.7a4.146,4.146,0,0,1,1.6-.3,4.529,4.529,0,0,1,1.6.3L60,23l-2.8,1h-.1L34.4,20.4A2.488,2.488,0,1,0,32,23.5a2.437,2.437,0,0,0,2.1-1.2l19.5,3.1L33.5,33.3a3.654,3.654,0,0,1-2.9,0L4,23Zm2.5,10.5a1.613,1.613,0,0,1-.9.3,1.5,1.5,0,0,1,0-3,1.709,1.709,0,0,1,1.3.7L32.2,20l-.3,2Z" transform="translate(-1.5 -8.93)" fill="#fff" stroke="#fff" stroke-width="1"/>
</svg>