<svg xmlns="http://www.w3.org/2000/svg" width="59.411" height="59.411" viewBox="0 0 59.411 59.411">
  <g id="noun_kindergarten_1275030" transform="translate(-8 -8)">
    <path id="Path_8500" data-name="Path 8500" d="M47.365,47a6.365,6.365,0,1,0,6.365,6.365A6.365,6.365,0,0,0,47.365,47Zm0,10.609a4.244,4.244,0,1,1,4.244-4.244A4.249,4.249,0,0,1,47.365,57.609Z" transform="translate(-9.66 -11.416)" fill="#fff"/>
    <path id="Path_8501" data-name="Path 8501" d="M63.168,62.445V48.189L65.687,50.2a1.061,1.061,0,1,0,1.326-1.657L51.1,35.816a1.04,1.04,0,0,0-.663-.215V24.975h5.879c2.461,0,3.548-2.618,1.626-3.916L39.332,8.482a2.985,2.985,0,0,0-3.252,0L17.47,21.058c-1.922,1.3-.835,3.916,1.626,3.916h5.879V35.584L14.365,48.315H12.244A4.243,4.243,0,0,0,8,52.558V63.168a4.243,4.243,0,0,0,4.244,4.244h4.244l8.487-10.185V66.35a1.061,1.061,0,0,0,2.122,0V54.68H48.315V66.35a1.061,1.061,0,0,0,2.122,0V54.979l15.25,12.2a1.061,1.061,0,1,0,1.326-1.657ZM24.975,53.912,15.494,65.289h-3.25a2.124,2.124,0,0,1-2.122-2.122V52.558a2.124,2.124,0,0,1,2.122-2.122h2.122A2.125,2.125,0,0,0,16,49.673L24.975,38.9Zm23.34-1.354H27.1V31.34H48.315Zm0-23.34H27.1V24.975H48.315ZM19.1,22.853a.861.861,0,0,1-.381-.075L37.268,10.239a.873.873,0,0,1,.876,0L56.7,22.779a.873.873,0,0,1-.381.074Zm35.584,32.8L51.1,52.79a1.042,1.042,0,0,0-.663-.214V38L54.68,41.4Zm6.365,5.092L56.8,57.352V43.1l4.244,3.395Z" fill="#fff"/>
  </g>
</svg>