<svg xmlns="http://www.w3.org/2000/svg" width="38.967" height="51.574" viewBox="0 0 38.967 51.574">
  <g id="noun_Book_1166234" transform="translate(-16 -5)">
    <g id="Group_2314" data-name="Group 2314" transform="translate(16 5)">
      <path id="Path_8499" data-name="Path 8499" d="M22.3,957.362a6.418,6.418,0,0,0-6.3,6.3v40.113a5.172,5.172,0,0,0,5.157,5.157H53.821a1.191,1.191,0,0,0,1.146-1.146V968.823a1.1,1.1,0,0,0-1.146-1.146,4.011,4.011,0,0,1,0-8.023,1.146,1.146,0,0,0,0-2.292Zm0,2.292H49.022a6.1,6.1,0,0,0,0,8.023H22.3a4.011,4.011,0,0,1,0-8.023Zm-4.011,8.811a6.238,6.238,0,0,0,4.011,1.5h9.742v13.753a1.146,1.146,0,0,0,1.791.949l5.086-3.546,5.068,3.546a1.146,1.146,0,0,0,1.809-.949V969.969h6.877v36.675H21.157a2.834,2.834,0,0,1-2.865-2.865Zm16.045,1.5h9.169v11.568l-3.94-2.758a1.176,1.176,0,0,0-1.307,0l-3.922,2.74Z" transform="translate(-16 -957.362)" fill="#fff"/>
    </g>
  </g>
</svg>