<svg xmlns="http://www.w3.org/2000/svg" width="47.663" height="48.692" viewBox="0 0 47.663 48.692">
  <g id="noun_university_1736896" transform="translate(-7.108 -6.169)">
    <g id="Group_2406" data-name="Group 2406" transform="translate(7.808 6.87)">
      <path id="Path_8637" data-name="Path 8637" d="M28.132,956.362a.578.578,0,0,0-.289.08L6.253,970.836a.517.517,0,0,0-.209.578.526.526,0,0,0,.5.37h3.6V994.4h-3.6a.534.534,0,0,0-.514.514v3.6H5.514a.534.534,0,0,0-.514.514v4.112a.534.534,0,0,0,.514.514H50.749a.534.534,0,0,0,.514-.514v-4.112a.534.534,0,0,0-.514-.514h-.514v-3.6a.534.534,0,0,0-.514-.514h-3.6V971.783h3.6a.525.525,0,0,0,.5-.369.517.517,0,0,0-.209-.578l-21.59-14.393a.445.445,0,0,0-.289-.08Zm0,1.124,19.9,13.269H8.229Zm-16.963,14.3h3.084V994.4H11.168Zm4.112,0h5.14V994.4h-5.14Zm6.168,0h3.084V994.4H21.449Zm4.112,0H30.7V994.4h-5.14Zm6.168,0h3.084V994.4H31.73Zm4.112,0h5.14V994.4h-5.14Zm6.168,0h3.084V994.4H42.011ZM7.056,995.429H49.207v3.084H7.056Zm-1.028,4.112H50.235v3.084H6.028Z" transform="translate(-5 -956.362)" fill="#fff" stroke="#fff" stroke-width="1.4"/>
    </g>
  </g>
</svg>